<?xml version="1.0" encoding="UTF-8"?>
<svg version="1.1" viewBox="0 0 1200 1000" xml:space="preserve" xmlns="http://www.w3.org/2000/svg"><g transform="translate(475.47 351.48)"><path d="m368.97-350.32c-78.053 7.2644-148.61 45.941-205.33 112.27l-14.767 17.345v102.43h24.143c76.881 0 197.83-17.345 300.96-43.363 73.834-18.517 168.06-51.098 171.11-59.067 3.2778-8.4426-37.503-52.972-69.146-75.709-34.925-24.846-76.647-42.894-116.02-50.394-22.737-4.2169-66.1-5.8646-90.946-3.517z" fill="#f0f" opacity=".5"/><path d="m-201.55-346.81c-77.584 14.064-144.86 55.786-191.73 118.84-3.5161 4.6864-6.3289 9.1416-6.3289 9.845 0 2.1084 70.787 28.831 101.96 38.675 106.88 33.284 233.93 54.614 361.67 60.239l35.628 1.6389v-101.02l-11.016-14.767c-41.957-57.427-112.98-100.79-185.17-113.45-24.377-4.2169-81.804-4.2169-105.01 0z" fill="#0ff" opacity=".5"/><path d="m644.61-162.34c-35.628 15.938-115.09 43.128-152.82 52.27-17.814 4.2169-19.455 5.6255-13.595 10.548 5.8558 4.9256 19.689 29.299 24.846 43.832 6.095 17.58 8.4426 53.911 4.6864 73.834-12.657 65.161-74.068 109.7-151.42 109.7h-19.924v135.95h64.459l17.579-14.064c70.318-56.489 147.43-93.054 233.46-111.1l25.549-5.1559 4.2169-12.892c25.081-74.303 30.238-156.34 14.298-227.83-5.8558-26.253-21.565-64.928-26.252-64.693-2.1084 0-13.361 4.2169-25.081 9.6102z" fill="#f0f"/><path d="m-430.08-159.53c-22.971 53.911-31.643 130.79-22.033 195.48 4.2186 28.362 15.47 73.834 21.799 88.367 4.2186 9.6102 4.4534 9.6102 21.564 12.658 64.458 11.485 144.62 44.534 201.34 82.74 60.005 40.55 121.88 105.24 154.93 161.73 24.846 42.66 44.066 90.945 53.677 135.01 4.2169 18.986 9.1416 64.224 9.3755 83.21 0 6.3253 2.3476 7.7339 38.206 25.08 20.861 10.314 40.55 18.987 43.832 19.22l5.8558 0.70872v-705.53l-33.988-1.6389c-46.175-2.3388-111.57-8.2034-151.18-13.829-100.79-14.298-227.83-48.051-308.23-82.038-14.767-6.3253-27.893-11.486-28.83-11.486-0.93728 0-3.75 4.6864-6.3289 10.314z" fill="#0ff"/><path d="m280.13-71.159c-30.94 3.7474-100.79 9.1407-115.79 9.1407h-15.47v710.45l5.3951-1.6389c8.673-2.578 65.396-30.002 75.709-36.566l9.6102-6.095 1.4086-27.893c2.3476-51.333 18.048-108.76 43.832-160.33l14.064-27.893v-229.47c0-126.34-0.70872-229.94-1.6389-230.64-1.1694-0.44295-8.673 0-17.111 0.93905z" fill="#f0f"/><path d="m-404.3 192.53c0 3.517 24.611 47.348 43.597 77.584 62.818 100.32 159.86 198.3 274.94 278.23 17.814 12.423 33.987 22.97 36.096 23.909 5.1559 1.8781 5.1559-4.4561 0.44295-33.049-24.377-151.19-157.28-290.18-323-338.47-13.829-3.9866-26.487-7.9731-28.596-8.673-1.8754-0.93905-3.5161-0.70872-3.5161 0.44295z" fill="#0ff" opacity=".5"/><path d="m618.83 200.27c-84.147 26.018-142.51 61.411-206.5 125.4-27.424 27.424-39.378 41.488-53.207 62.349-19.455 29.534-37.269 64.928-48.285 96.571-8.4426 24.611-17.111 68.208-16.174 81.569l0.70872 9.6102 23.44-15.939c101.02-68.912 176.26-136.89 241.19-217.99 31.174-38.675 66.099-92.82 86.726-133.84 10.079-20.158 11.251-19.923-27.893-7.7339z" fill="#f0f" opacity=".5"/></g></svg>
